<svg width="496" height="496" viewBox="0 0 496 496" fill="none" xmlns="http://www.w3.org/2000/svg">
<path d="M370.512 232.293V409.076C370.512 422.013 360.055 432.471 347.117 432.471H209.725C196.788 432.471 186.331 422.013 186.331 409.076V58.3213C186.331 45.384 196.788 34.9267 209.725 34.9267H347.117C360.055 34.9267 370.512 45.384 370.512 58.3213V232.293Z" fill="#292929"/>
<path d="M336.701 439.869L306.321 397.792C306.321 397.792 289.209 374.149 278.462 373.736C278.38 379.936 278.793 424.411 280.694 439.828H336.701V439.869Z" fill="#1A1A1A"/>
<path d="M364.891 433.132H370.512V364.684L323.144 356.831L278.421 373.777C280.529 378.572 291.648 410.399 315.497 438.257H364.849V433.132H364.891Z" fill="#1E1E1E"/>
<path d="M265.236 265.236C261.392 265.153 261.392 271.064 261.392 271.064C259.532 265.525 218.943 164.548 218.943 164.548C218.943 164.548 210.552 168.103 220.224 187.199C217.083 189.059 208.361 196.044 211.957 207.287C214.685 215.719 220.637 218.695 224.357 218.695C223.737 225.019 237.253 289.623 239.031 292.723C243.164 300.039 251.141 308.016 255.853 308.223C263.376 308.595 281.893 298.716 286.481 293.549C291.069 288.383 272.469 265.36 265.236 265.236Z" fill="#D8B5A5"/>
<path d="M321.119 229.607C302.808 213.28 258.127 252.381 258.995 259.16C259.863 265.939 283.919 290.449 290.987 288.383C298.055 286.316 335.544 242.42 321.119 229.607Z" fill="#2C2C54"/>
<path d="M370.512 232.293C362.369 219.108 350.424 210.593 333.312 210.593C273.916 210.593 272.221 365.18 278.421 373.777C283.919 381.383 349.432 383.367 370.512 378.117" fill="#2C2C54"/>
<path d="M370.512 288.713L364.271 291.276C364.808 293.26 367.205 304.379 370.512 316.655" fill="#D8B5A5"/>
<path d="M370.512 230.929C366.378 227.871 362.162 226.631 358.277 228.243C335.874 237.584 351.829 293.756 358.277 295.823C360.344 296.484 365.056 295.823 370.512 294.376" fill="#2C2C54"/>
<path d="M344.72 224.151C344.72 229.069 317.481 230.144 317.481 224.151V190.671H344.72V224.151Z" fill="#D8B5A5"/>
<path d="M350.404 185.525C357.181 168.492 352.409 150.6 339.746 145.562C327.082 140.523 311.323 150.247 304.546 167.28C297.769 184.313 302.541 202.205 315.204 207.243C327.868 212.282 343.627 202.558 350.404 185.525Z" fill="#D8B5A5"/>
<path d="M353.2 191.211C355.712 187.703 355.763 183.437 353.313 181.682C350.863 179.928 346.841 181.349 344.328 184.856C341.816 188.364 341.765 192.63 344.215 194.385C346.665 196.139 350.687 194.718 353.2 191.211Z" fill="#DE8E68"/>
<path d="M371.669 172.319C371.669 167.772 367.412 162.771 366.627 157.067C366.213 154.173 367.123 142.145 363.733 138.053C356.707 129.621 352.573 131.357 347.2 129.373C337.859 125.943 334.263 120.28 326.533 120.28C317.771 120.28 314.216 124.827 307.933 124.827C300.741 124.827 294.872 121.52 284.787 121.52C279.413 121.52 272.387 128.547 272.387 134.747C272.387 149.42 286.027 147.312 286.027 150.867C286.027 153.347 285.2 155.331 285.2 158.72C285.2 163.184 290.987 165.747 294.293 165.747C304.379 165.747 305.701 164.507 305.701 164.507C307.685 160.497 310.248 156.819 313.307 153.553C313.72 153.14 320.251 157.728 330.915 158.1C339.677 158.389 345.836 160.084 345.836 164.176C345.836 167.069 344.761 175.625 344.844 178.023C344.927 180.42 345.753 181.991 346.291 181.991C346.828 181.991 347.117 181.205 350.507 181.205C354.103 181.205 354.392 185.628 355.012 185.628C358.649 185.628 371.669 182.693 371.669 172.319Z" fill="#FF5252"/>
<path d="M208.527 117.717H229.152C235.269 117.717 240.229 122.677 240.229 128.795V149.42C240.229 155.537 235.269 160.497 229.152 160.497H208.527C202.409 160.497 197.449 155.537 197.449 149.42V128.795C197.449 122.677 202.409 117.717 208.527 117.717Z" fill="#FF5252"/>
<path d="M235.104 129.911C239.943 129.911 243.867 125.987 243.867 121.148C243.867 116.309 239.943 112.385 235.104 112.385C230.264 112.385 226.341 116.309 226.341 121.148C226.341 125.987 230.264 129.911 235.104 129.911Z" fill="#2ECC71"/>
<path d="M347.862 22.32H209.023C190.34 22.32 175.171 37.4893 175.171 56.172V411.143C175.171 429.825 190.34 444.995 209.023 444.995H347.862C366.544 444.995 381.714 429.825 381.714 411.143V56.172C381.714 37.4893 366.544 22.32 347.862 22.32ZM370.512 232.293V409.076C370.512 422.013 360.055 432.471 347.118 432.471H209.726C196.788 432.471 186.331 422.013 186.331 409.076V58.3213C186.331 45.384 196.788 34.9267 209.726 34.9267H347.118C360.055 34.9267 370.512 45.384 370.512 58.3213V232.293Z" fill="#C6C4C5"/>
<path d="M369.355 74.8547H419.492C428.544 74.8547 435.901 82.212 435.901 91.264C435.901 100.316 428.544 107.673 419.492 107.673H369.355C360.303 107.673 352.945 100.316 352.945 91.264C352.945 82.1707 360.303 74.8547 369.355 74.8547Z" fill="#40407A"/>
<path d="M372.454 100.027L358.236 85.7667V114.287L372.454 100.027Z" fill="#40407A"/>
<path d="M394.444 95.9347C396.727 95.9347 398.577 94.0841 398.577 91.8013C398.577 89.5186 396.727 87.668 394.444 87.668C392.161 87.668 390.311 89.5186 390.311 91.8013C390.311 94.0841 392.161 95.9347 394.444 95.9347Z" fill="#4BFFA5"/>
<path d="M238.989 25.668H317.853C321.449 25.668 324.343 28.5613 324.343 32.1573V42.1187C324.343 45.7147 321.449 48.608 317.853 48.608H238.989C235.393 48.608 232.5 45.7147 232.5 42.1187V32.1573C232.5 28.6027 235.393 25.668 238.989 25.668Z" fill="#C6C4C5"/>
<path d="M377.498 95.9347C379.78 95.9347 381.631 94.0841 381.631 91.8013C381.631 89.5186 379.78 87.668 377.498 87.668C375.215 87.668 373.364 89.5186 373.364 91.8013C373.364 94.0841 375.215 95.9347 377.498 95.9347Z" fill="#4BFFA5"/>
<path d="M411.349 95.9347C413.632 95.9347 415.482 94.0841 415.482 91.8013C415.482 89.5186 413.632 87.668 411.349 87.668C409.066 87.668 407.216 89.5186 407.216 91.8013C407.216 94.0841 409.066 95.9347 411.349 95.9347Z" fill="#4BFFA5"/>
<path d="M145.121 408.084C151.28 405.439 156.075 401.347 156.075 389.567C156.075 334.387 90.7681 349.267 90.7681 303.428" stroke="#2ECC71" stroke-width="9" stroke-miterlimit="10" stroke-linecap="round"/>
<path d="M102.259 303.139C105.813 307.768 93.9507 313.017 92.256 310.827C90.5614 308.636 98.4974 298.22 102.259 303.139Z" fill="#2ECC71"/>
<path d="M79.7732 299.501C81.2612 293.88 92.7105 299.997 92.0078 302.725C91.3052 305.453 78.2025 305.536 79.7732 299.501Z" fill="#2ECC71"/>
<path d="M79.5665 319.3C78.8225 313.555 91.7599 314.96 92.0905 317.729C92.4212 320.499 80.3519 325.5 79.5665 319.3Z" fill="#2ECC71"/>
<path d="M90.9746 337.28C87.2132 332.857 98.7866 326.947 100.605 329.055C102.424 331.163 95.0252 341.992 90.9746 337.28Z" fill="#2ECC71"/>
<path d="M105.318 346.993C103.044 341.661 115.858 339.512 116.932 342.075C118.007 344.637 107.715 352.697 105.318 346.993Z" fill="#2ECC71"/>
<path d="M124.537 357.079C122.264 351.747 135.077 349.597 136.152 352.16C137.227 354.723 126.976 362.783 124.537 357.079Z" fill="#2ECC71"/>
<path d="M138.963 371.711C138.467 365.924 151.321 367.867 151.569 370.636C151.817 373.405 139.5 377.911 138.963 371.711Z" fill="#2ECC71"/>
<path d="M108.5 315.58C113.047 319.217 102.796 327.195 100.605 325.459C98.4147 323.723 103.623 311.653 108.5 315.58Z" fill="#2ECC71"/>
<path d="M118.792 325.913C123.794 328.889 114.783 338.189 112.386 336.784C109.988 335.379 113.46 322.772 118.792 325.913Z" fill="#2ECC71"/>
<path d="M137.681 336.081C142.393 339.471 132.515 347.944 130.241 346.291C127.968 344.637 132.639 332.444 137.681 336.081Z" fill="#2ECC71"/>
<path fill-rule="evenodd" clip-rule="evenodd" d="M154.887 230.251C158.775 228.935 162.836 225.587 160.125 222.043C157.817 219.033 154.686 220.362 152.383 222.783C151.143 222.556 149.815 222.848 148.755 223.698C143.998 227.512 141.249 233.243 139.615 238.776C136.606 235.67 132.071 233.166 129.993 236.344C127.367 240.384 133.606 243.961 138.188 244.88C137.191 250.424 136.984 255.606 136.949 258.725C133.962 255.891 129.838 253.859 127.885 256.845C125.039 261.224 132.605 265.058 137.19 265.555C137.647 270.834 138.705 275.887 140.127 280.808C137.112 278.802 133.619 277.863 132.143 280.653C129.654 285.436 138.132 288.627 142.64 288.488C144.066 292.433 145.65 296.324 147.261 300.213C144.577 299.416 142.055 299.638 141.236 302.064C139.753 306.376 145.97 308.333 150.601 308.301C151.748 311.126 152.877 313.995 153.951 316.937C151.444 315.62 148.899 315.333 147.643 317.564C145.197 321.889 152.199 325.116 156.847 325.584C158.038 329.537 159.083 333.651 159.904 337.982C156.805 335.572 152.898 334.126 151.239 337.073C148.69 341.581 156.403 344.896 161.018 345.137C161.422 348.448 161.687 351.889 161.784 355.482C159.724 353.091 157.149 351.655 155.083 353.524C151.297 356.943 157.229 362.414 161.522 364.208C160.418 374.599 156.458 384.064 152.35 391.611C149.943 396.033 147.527 399.721 145.667 402.513C145.564 402.666 145.463 402.818 145.362 402.969L145.193 403.222L145.185 403.234C144.466 404.311 143.81 405.293 143.321 406.078C143.023 406.557 142.715 407.075 142.47 407.572C142.346 407.821 142.2 408.143 142.076 408.507C141.97 408.819 141.779 409.448 141.779 410.233C141.779 412.719 143.794 414.733 146.279 414.733C148.364 414.733 150.119 413.315 150.629 411.39C150.699 411.265 150.805 411.085 150.96 410.836C151.366 410.185 151.917 409.359 152.632 408.289C152.797 408.041 152.972 407.78 153.156 407.504C155.054 404.656 157.65 400.698 160.255 395.913C163.803 389.394 167.448 381.198 169.394 371.951C174.019 372.116 181.161 369.99 179.635 365.676C178.383 362.101 173.995 363.079 170.472 365.163C170.701 363.006 170.826 360.805 170.826 358.567C170.826 355.926 170.741 353.361 170.582 350.865C175.138 350.671 181.035 348.554 179.635 344.596C178.325 340.832 173.582 342.079 169.989 344.366C169.4 339.428 168.528 334.77 167.462 330.345C171.667 328.592 176.415 324.619 173.765 321.408C171.538 318.698 168.126 320.537 165.563 323.316C164.192 318.726 162.647 314.382 161.044 310.222C165.3 308.518 170.26 304.463 167.565 301.196C165.101 298.197 161.184 300.769 158.575 304.02C158.399 303.588 158.222 303.158 158.046 302.729C157.538 301.492 157.033 300.274 156.534 299.071C155.741 297.155 154.964 295.28 154.214 293.433C159.246 291.719 166.135 286.594 162.936 282.72C159.962 279.105 154.793 283.123 151.81 287.318C150.119 282.828 148.673 278.445 147.64 274.005C152.658 272.837 161.128 267.138 157.645 262.921C154.652 259.257 149.434 263.359 146.46 267.591C146.125 265.066 145.943 262.5 145.943 259.863C145.943 258.524 145.971 256.559 146.122 254.242C151.38 253.481 159.092 249.679 156.654 245.272C154.824 241.925 150.652 243.273 147.167 245.819C147.215 245.568 147.265 245.318 147.317 245.067C148.596 238.881 150.858 233.548 154.384 230.72C154.566 230.574 154.734 230.417 154.887 230.251Z" fill="#2ECC71"/>
<path d="M173.517 461.445H136.979C135.284 461.445 133.755 460.371 133.217 458.717L115.031 403.62C114.369 401.553 115.485 399.321 117.552 398.619C117.965 398.495 118.379 398.412 118.792 398.412H191.869C194.06 398.412 195.837 400.189 195.837 402.38C195.837 402.793 195.755 403.207 195.631 403.62L177.279 458.717C176.7 460.371 175.212 461.445 173.517 461.445Z" fill="#2C2C54"/>
</svg>
