<svg width="116" height="37" viewBox="0 0 116 37" fill="none" xmlns="http://www.w3.org/2000/svg">
<path d="M29.1367 21.0377C28.9114 21.0377 28.7086 20.9589 28.5283 20.8011C28.3706 20.6208 28.2917 20.418 28.2917 20.1927V6.72656L23.6608 10.2758C23.5031 10.411 23.3341 10.4786 23.1538 10.4786C22.9059 10.4786 22.6806 10.3434 22.4778 10.0729L20.4835 7.4702C20.3708 7.28993 20.3145 7.12092 20.3145 6.96318C20.3145 6.64769 20.4497 6.41108 20.7201 6.25334L28.4945 0.236614C28.7424 0.0788711 29.0128 0 29.3057 0H33.531C33.7788 0 33.9817 0.0788711 34.1394 0.236614C34.2971 0.394355 34.376 0.597166 34.376 0.845047V20.1927C34.376 20.418 34.2971 20.6208 34.1394 20.8011C33.9817 20.9589 33.7788 21.0377 33.531 21.0377H29.1367Z" fill="#2ECC71"/>
<path d="M9.81056 37C7.10641 37 4.9769 36.2676 3.42201 34.8029C1.86713 33.3381 1.05588 31.2086 0.988281 28.4143V27.2313C1.07842 24.5722 1.90093 22.499 3.45581 21.0117C5.03323 19.5019 7.14021 18.747 9.77676 18.747C11.6922 18.747 13.3034 19.1414 14.6104 19.9301C15.94 20.6963 16.9315 21.7554 17.585 23.1074C18.261 24.4595 18.599 26.0144 18.599 27.7721V28.5833C18.599 28.8087 18.5202 29.0115 18.3624 29.1918C18.2047 29.3495 18.0019 29.4284 17.754 29.4284H6.9374V29.665C6.98247 30.7241 7.24162 31.5804 7.71485 32.2339C8.18807 32.8874 8.87537 33.2142 9.77676 33.2142C10.3401 33.2142 10.8021 33.1015 11.1626 32.8762C11.5232 32.6283 11.8499 32.3353 12.1429 31.9973C12.3457 31.7494 12.5034 31.603 12.6161 31.5579C12.7513 31.4903 12.9541 31.4565 13.2245 31.4565H17.416C17.6188 31.4565 17.7878 31.5241 17.923 31.6593C18.0807 31.772 18.1596 31.9297 18.1596 32.1325C18.1596 32.7184 17.8216 33.3945 17.1456 34.1606C16.4921 34.9268 15.5343 35.5916 14.2724 36.155C13.0105 36.7183 11.5232 37 9.81056 37ZM12.6499 26.082V26.0144C12.6499 24.9102 12.3908 24.0426 11.8725 23.4117C11.3767 22.7582 10.6781 22.4314 9.77676 22.4314C8.89791 22.4314 8.19934 22.7582 7.68104 23.4117C7.18528 24.0426 6.9374 24.9102 6.9374 26.0144V26.082H12.6499Z" fill="#C6C4C5"/>
<path d="M29.1367 36.662C28.9114 36.662 28.7086 36.5831 28.5283 36.4254C28.3706 36.2451 28.2917 36.0423 28.2917 35.8169V19.7273L23.6609 23.2765C23.5031 23.4117 23.3341 23.4793 23.1538 23.4793C22.9059 23.4793 22.6806 23.3441 22.4778 23.0736L20.4835 20.4709C20.3708 20.2906 20.3145 20.1216 20.3145 19.9639C20.3145 19.6484 20.4497 19.4118 20.7201 19.254L28.4945 13.2373C28.7424 13.0796 29.0128 13.0007 29.3058 13.0007H33.531C33.7789 13.0007 33.9817 13.0796 34.1394 13.2373C34.2972 13.3951 34.376 13.5979 34.376 13.8457V35.8169C34.376 36.0423 34.2972 36.2451 34.1394 36.4254C33.9817 36.5831 33.7789 36.662 33.531 36.662H29.1367Z" fill="#C6C4C5"/>
<path d="M46.6823 37C43.9781 37 41.8486 36.2676 40.2937 34.8029C38.7388 33.3381 37.9276 31.2086 37.86 28.4143V27.2313C37.9501 24.5722 38.7726 22.499 40.3275 21.0117C41.9049 19.5019 44.0119 18.747 46.6485 18.747C48.5639 18.747 50.1751 19.1414 51.4821 19.9301C52.8117 20.6963 53.8032 21.7554 54.4567 23.1074C55.1327 24.4595 55.4707 26.0144 55.4707 27.7721V28.5833C55.4707 28.8087 55.3919 29.0115 55.2341 29.1918C55.0764 29.3495 54.8736 29.4284 54.6257 29.4284H43.8091V29.665C43.8542 30.7241 44.1133 31.5804 44.5866 32.2339C45.0598 32.8874 45.7471 33.2142 46.6485 33.2142C47.2118 33.2142 47.6738 33.1015 48.0343 32.8762C48.3949 32.6283 48.7217 32.3353 49.0146 31.9973C49.2174 31.7494 49.3752 31.603 49.4878 31.5579C49.623 31.4903 49.8258 31.4565 50.0963 31.4565H54.2877C54.4905 31.4565 54.6595 31.5241 54.7947 31.6593C54.9525 31.772 55.0313 31.9297 55.0313 32.1325C55.0313 32.7184 54.6933 33.3945 54.0173 34.1606C53.3638 34.9268 52.4061 35.5916 51.1441 36.155C49.8822 36.7183 48.3949 37 46.6823 37ZM49.5216 26.082V26.0144C49.5216 24.9102 49.2625 24.0426 48.7442 23.4117C48.2484 22.7582 47.5499 22.4314 46.6485 22.4314C45.7696 22.4314 45.0711 22.7582 44.5528 23.4117C44.057 24.0426 43.8091 24.9102 43.8091 26.0144V26.082H49.5216Z" fill="#C6C4C5"/>
<path d="M64.2328 36.662C63.9173 36.662 63.6694 36.5944 63.4892 36.4592C63.3314 36.3014 63.1962 36.0874 63.0836 35.8169L56.695 20.1329L56.6274 19.8287C56.6274 19.6259 56.695 19.4569 56.8302 19.3216C56.988 19.1639 57.1795 19.085 57.4048 19.085H61.2245C61.7202 19.085 62.047 19.3216 62.2047 19.7949L66.0243 30.172L69.8777 19.7949C70.0355 19.3216 70.3622 19.085 70.858 19.085H74.6776C74.8804 19.085 75.0607 19.1639 75.2184 19.3216C75.3762 19.4569 75.455 19.6259 75.455 19.8287L75.3874 20.1329L68.9989 35.8169C68.8862 36.0874 68.7397 36.3014 68.5594 36.4592C68.3792 36.5944 68.1313 36.662 67.8158 36.662H64.2328Z" fill="#C6C4C5"/>
<path d="M85.5346 37C82.8304 37 80.7009 36.2676 79.146 34.8029C77.5911 33.3381 76.7799 31.2086 76.7123 28.4143V27.2313C76.8024 24.5722 77.6249 22.499 79.1798 21.0117C80.7572 19.5019 82.8642 18.747 85.5008 18.747C87.4162 18.747 89.0274 19.1414 90.3344 19.9301C91.664 20.6963 92.6555 21.7554 93.309 23.1074C93.985 24.4595 94.323 26.0144 94.323 27.7721V28.5833C94.323 28.8087 94.2442 29.0115 94.0864 29.1918C93.9287 29.3495 93.7259 29.4284 93.478 29.4284H82.6614V29.665C82.7065 30.7241 82.9656 31.5804 83.4389 32.2339C83.9121 32.8874 84.5994 33.2142 85.5008 33.2142C86.0641 33.2142 86.5261 33.1015 86.8866 32.8762C87.2472 32.6283 87.574 32.3353 87.8669 31.9973C88.0697 31.7494 88.2274 31.603 88.3401 31.5579C88.4753 31.4903 88.6781 31.4565 88.9486 31.4565H93.14C93.3428 31.4565 93.5118 31.5241 93.647 31.6593C93.8047 31.772 93.8836 31.9297 93.8836 32.1325C93.8836 32.7184 93.5456 33.3945 92.8696 34.1606C92.2161 34.9268 91.2583 35.5916 89.9964 36.155C88.7345 36.7183 87.2472 37 85.5346 37ZM88.3739 26.082V26.0144C88.3739 24.9102 88.1148 24.0426 87.5965 23.4117C87.1007 22.7582 86.4022 22.4314 85.5008 22.4314C84.6219 22.4314 83.9233 22.7582 83.4051 23.4117C82.9093 24.0426 82.6614 24.9102 82.6614 26.0144V26.082H88.3739Z" fill="#C6C4C5"/>
<path d="M98.337 36.662C98.0891 36.662 97.8863 36.5831 97.7286 36.4254C97.5708 36.2676 97.492 36.0648 97.492 35.8169V19.9301C97.492 19.6822 97.5708 19.4794 97.7286 19.3216C97.8863 19.1639 98.0891 19.085 98.337 19.085H102.224C102.472 19.085 102.675 19.1639 102.833 19.3216C103.013 19.4794 103.103 19.6822 103.103 19.9301V21.2145C103.711 20.4709 104.489 19.8737 105.435 19.423C106.404 18.9724 107.497 18.747 108.714 18.747C110.697 18.747 112.308 19.423 113.548 20.7751C114.787 22.1047 115.407 23.975 115.407 26.3862V35.8169C115.407 36.0423 115.328 36.2451 115.17 36.4254C115.013 36.5831 114.81 36.662 114.562 36.662H110.303C110.078 36.662 109.875 36.5831 109.694 36.4254C109.537 36.2451 109.458 36.0423 109.458 35.8169V26.589C109.458 25.5299 109.199 24.7187 108.68 24.1553C108.162 23.5694 107.418 23.2765 106.449 23.2765C105.503 23.2765 104.759 23.5694 104.219 24.1553C103.678 24.7187 103.407 25.5299 103.407 26.589V35.8169C103.407 36.0423 103.328 36.2451 103.171 36.4254C103.013 36.5831 102.81 36.662 102.562 36.662H98.337Z" fill="#C6C4C5"/>
</svg>
