<svg width="17" height="45" viewBox="0 0 17 45" fill="none" xmlns="http://www.w3.org/2000/svg">
<path d="M10.6282 25.3442C10.3567 25.3442 10.1124 25.2492 9.89522 25.0591C9.70519 24.8419 9.61017 24.5976 9.61017 24.3261V8.10349L4.03138 12.3792C3.84135 12.5421 3.63775 12.6235 3.42057 12.6235C3.12195 12.6235 2.85047 12.4606 2.60615 12.1349L0.203606 8.99936C0.0678686 8.78218 0 8.57857 0 8.38854C0 8.00848 0.162885 7.72343 0.488653 7.5334L9.8545 0.285049C10.1531 0.0950161 10.4789 0 10.8318 0H15.9219C16.2206 0 16.4649 0.0950161 16.6549 0.285049C16.845 0.475079 16.94 0.719406 16.94 1.01803V24.3261C16.94 24.5976 16.845 24.8419 16.6549 25.0591C16.4649 25.2492 16.2206 25.3442 15.9219 25.3442H10.6282Z" fill="#2ECC71"/>
<path d="M10.6282 44.1667C10.3567 44.1667 10.1124 44.0717 9.89522 43.8817C9.70519 43.6645 9.61017 43.4202 9.61017 43.1487V23.7655L4.03139 28.0412C3.84135 28.2041 3.63775 28.2855 3.42057 28.2855C3.12195 28.2855 2.85047 28.1226 2.60615 27.7969L0.203607 24.6613C0.0678697 24.4442 0 24.2406 0 24.0505C0 23.6705 0.162885 23.3854 0.488654 23.1954L9.8545 15.947C10.1531 15.757 10.4789 15.662 10.8318 15.662H15.9219C16.2206 15.662 16.4649 15.757 16.6549 15.947C16.845 16.1371 16.94 16.3814 16.94 16.68V43.1487C16.94 43.4202 16.845 43.6645 16.6549 43.8817C16.4649 44.0717 16.2206 44.1667 15.9219 44.1667H10.6282Z" fill="#C6C4C5"/>
</svg>
